<mxfile host="app.diagrams.net" modified="2023-10-31T08:07:59.900Z" agent="Mozilla/5.0 (Windows NT 10.0; Win64; x64) AppleWebKit/537.36 (KHTML, like Gecko) Chrome/93.0.4577.63 Safari/537.36 Edg/93.0.961.47" etag="6kB2zKbHRih1KJAhXdE2" version="22.0.8" type="github">
  <diagram name="第 1 页" id="doAgwRNduZI2XvyuHOxY">
    <mxGraphModel dx="1290" dy="580" grid="1" gridSize="10" guides="1" tooltips="1" connect="1" arrows="1" fold="1" page="1" pageScale="1" pageWidth="827" pageHeight="1169" math="0" shadow="0">
      <root>
        <mxCell id="0" />
        <mxCell id="1" parent="0" />
        <mxCell id="NDL_57xlGtc8rbdUpCcJ-11" style="edgeStyle=orthogonalEdgeStyle;rounded=0;orthogonalLoop=1;jettySize=auto;html=1;entryX=0;entryY=0.5;entryDx=0;entryDy=0;" edge="1" parent="1" source="NDL_57xlGtc8rbdUpCcJ-1" target="NDL_57xlGtc8rbdUpCcJ-2">
          <mxGeometry relative="1" as="geometry" />
        </mxCell>
        <mxCell id="NDL_57xlGtc8rbdUpCcJ-1" value="开始" style="rounded=1;whiteSpace=wrap;html=1;" vertex="1" parent="1">
          <mxGeometry x="80" y="240" width="120" height="60" as="geometry" />
        </mxCell>
        <mxCell id="NDL_57xlGtc8rbdUpCcJ-12" style="edgeStyle=orthogonalEdgeStyle;rounded=0;orthogonalLoop=1;jettySize=auto;html=1;exitX=1;exitY=0.5;exitDx=0;exitDy=0;entryX=0;entryY=0.5;entryDx=0;entryDy=0;" edge="1" parent="1" source="NDL_57xlGtc8rbdUpCcJ-2" target="NDL_57xlGtc8rbdUpCcJ-3">
          <mxGeometry relative="1" as="geometry" />
        </mxCell>
        <mxCell id="NDL_57xlGtc8rbdUpCcJ-2" value="选中约束的图元" style="rounded=0;whiteSpace=wrap;html=1;" vertex="1" parent="1">
          <mxGeometry x="240" y="240" width="120" height="60" as="geometry" />
        </mxCell>
        <mxCell id="NDL_57xlGtc8rbdUpCcJ-13" style="edgeStyle=orthogonalEdgeStyle;rounded=0;orthogonalLoop=1;jettySize=auto;html=1;entryX=0;entryY=0.5;entryDx=0;entryDy=0;" edge="1" parent="1" source="NDL_57xlGtc8rbdUpCcJ-3" target="NDL_57xlGtc8rbdUpCcJ-5">
          <mxGeometry relative="1" as="geometry" />
        </mxCell>
        <mxCell id="NDL_57xlGtc8rbdUpCcJ-3" value="点击添加约束命令" style="rounded=0;whiteSpace=wrap;html=1;" vertex="1" parent="1">
          <mxGeometry x="400" y="240" width="120" height="60" as="geometry" />
        </mxCell>
        <mxCell id="NDL_57xlGtc8rbdUpCcJ-14" style="edgeStyle=orthogonalEdgeStyle;rounded=0;orthogonalLoop=1;jettySize=auto;html=1;entryX=0;entryY=0.5;entryDx=0;entryDy=0;" edge="1" parent="1" source="NDL_57xlGtc8rbdUpCcJ-5" target="NDL_57xlGtc8rbdUpCcJ-6">
          <mxGeometry relative="1" as="geometry" />
        </mxCell>
        <mxCell id="NDL_57xlGtc8rbdUpCcJ-15" value="是" style="edgeLabel;html=1;align=center;verticalAlign=middle;resizable=0;points=[];" vertex="1" connectable="0" parent="NDL_57xlGtc8rbdUpCcJ-14">
          <mxGeometry x="0.312" y="2" relative="1" as="geometry">
            <mxPoint as="offset" />
          </mxGeometry>
        </mxCell>
        <mxCell id="NDL_57xlGtc8rbdUpCcJ-16" style="edgeStyle=orthogonalEdgeStyle;rounded=0;orthogonalLoop=1;jettySize=auto;html=1;" edge="1" parent="1" source="NDL_57xlGtc8rbdUpCcJ-5" target="NDL_57xlGtc8rbdUpCcJ-7">
          <mxGeometry relative="1" as="geometry" />
        </mxCell>
        <mxCell id="NDL_57xlGtc8rbdUpCcJ-17" value="否" style="edgeLabel;html=1;align=center;verticalAlign=middle;resizable=0;points=[];" vertex="1" connectable="0" parent="NDL_57xlGtc8rbdUpCcJ-16">
          <mxGeometry x="-0.21" y="4" relative="1" as="geometry">
            <mxPoint as="offset" />
          </mxGeometry>
        </mxCell>
        <mxCell id="NDL_57xlGtc8rbdUpCcJ-5" value="是否为尺寸约束&lt;br&gt;添加命令" style="rhombus;whiteSpace=wrap;html=1;" vertex="1" parent="1">
          <mxGeometry x="560" y="230" width="110" height="80" as="geometry" />
        </mxCell>
        <mxCell id="NDL_57xlGtc8rbdUpCcJ-18" style="edgeStyle=orthogonalEdgeStyle;rounded=0;orthogonalLoop=1;jettySize=auto;html=1;entryX=1;entryY=0.5;entryDx=0;entryDy=0;" edge="1" parent="1" source="NDL_57xlGtc8rbdUpCcJ-6" target="NDL_57xlGtc8rbdUpCcJ-7">
          <mxGeometry relative="1" as="geometry">
            <Array as="points">
              <mxPoint x="760" y="380" />
            </Array>
          </mxGeometry>
        </mxCell>
        <mxCell id="NDL_57xlGtc8rbdUpCcJ-6" value="弹出对话框由用户输入尺寸约束值" style="rounded=0;whiteSpace=wrap;html=1;" vertex="1" parent="1">
          <mxGeometry x="700" y="240" width="120" height="60" as="geometry" />
        </mxCell>
        <mxCell id="NDL_57xlGtc8rbdUpCcJ-19" style="edgeStyle=orthogonalEdgeStyle;rounded=0;orthogonalLoop=1;jettySize=auto;html=1;exitX=0;exitY=0.5;exitDx=0;exitDy=0;entryX=1;entryY=0.5;entryDx=0;entryDy=0;" edge="1" parent="1" source="NDL_57xlGtc8rbdUpCcJ-7" target="NDL_57xlGtc8rbdUpCcJ-8">
          <mxGeometry relative="1" as="geometry" />
        </mxCell>
        <mxCell id="NDL_57xlGtc8rbdUpCcJ-7" value="实例化约束对象类并记录约束信息" style="rounded=0;whiteSpace=wrap;html=1;" vertex="1" parent="1">
          <mxGeometry x="555" y="350" width="120" height="60" as="geometry" />
        </mxCell>
        <mxCell id="NDL_57xlGtc8rbdUpCcJ-20" style="edgeStyle=orthogonalEdgeStyle;rounded=0;orthogonalLoop=1;jettySize=auto;html=1;entryX=1;entryY=0.5;entryDx=0;entryDy=0;" edge="1" parent="1" source="NDL_57xlGtc8rbdUpCcJ-8" target="NDL_57xlGtc8rbdUpCcJ-9">
          <mxGeometry relative="1" as="geometry" />
        </mxCell>
        <mxCell id="NDL_57xlGtc8rbdUpCcJ-8" value="UI界面约束列表添加约束项" style="rounded=0;whiteSpace=wrap;html=1;" vertex="1" parent="1">
          <mxGeometry x="400" y="350" width="120" height="60" as="geometry" />
        </mxCell>
        <mxCell id="NDL_57xlGtc8rbdUpCcJ-21" style="edgeStyle=orthogonalEdgeStyle;rounded=0;orthogonalLoop=1;jettySize=auto;html=1;entryX=1;entryY=0.5;entryDx=0;entryDy=0;" edge="1" parent="1" source="NDL_57xlGtc8rbdUpCcJ-9" target="NDL_57xlGtc8rbdUpCcJ-10">
          <mxGeometry relative="1" as="geometry" />
        </mxCell>
        <mxCell id="NDL_57xlGtc8rbdUpCcJ-9" value="加入约束对象容器" style="rounded=0;whiteSpace=wrap;html=1;" vertex="1" parent="1">
          <mxGeometry x="240" y="350" width="120" height="60" as="geometry" />
        </mxCell>
        <mxCell id="NDL_57xlGtc8rbdUpCcJ-10" value="结束" style="rounded=1;whiteSpace=wrap;html=1;" vertex="1" parent="1">
          <mxGeometry x="80" y="350" width="120" height="60" as="geometry" />
        </mxCell>
      </root>
    </mxGraphModel>
  </diagram>
</mxfile>
